HIERARCHY
ROOT Root
{
  OFFSET 0.0 0.0 0.0
  CHANNELS 6 Xposition Yposition Zposition Zrotation Yrotation Xrotation
  JOINT Hips
  {
    OFFSET 0.0 100.0 0.0
    CHANNELS 6 Xposition Yposition Zposition Zrotation Yrotation Xrotation
    JOINT Spine1
    {
      OFFSET 5.003913 -0.037094 -0.013727
      CHANNELS 3 Zrotation Yrotation Xrotation
      JOINT Spine2
      {
        OFFSET 7.125363 -1e-06 0.0
        CHANNELS 3 Zrotation Yrotation Xrotation
        JOINT Chest
        {
          OFFSET 7.594027 1e-06 0.0
          CHANNELS 3 Zrotation Yrotation Xrotation
          JOINT Neck1
          {
            OFFSET 26.313086 -0.460272 -0.181672
            CHANNELS 3 Zrotation Yrotation Xrotation
            JOINT Neck2
            {
              OFFSET 8.045911 0.0 0.0
              CHANNELS 3 Zrotation Yrotation Xrotation
              JOINT Head
              {
                OFFSET 6.432774 0.0 0.0
                CHANNELS 3 Zrotation Yrotation Xrotation
                JOINT HeadEnd
                {
                  OFFSET 16.169773 0.06451 0.00362
                  CHANNELS 3 Zrotation Yrotation Xrotation
                }
                JOINT Jaw
                {
                  OFFSET 0.108741 3.12938 0.002639
                  CHANNELS 3 Zrotation Yrotation Xrotation
                }
                JOINT LeftEye
                {
                  OFFSET 4.45173 8.166359 3.206392
                  CHANNELS 3 Zrotation Yrotation Xrotation
                }
                JOINT RightEye
                {
                  OFFSET 4.436895 8.135758 -3.222429
                  CHANNELS 3 Zrotation Yrotation Xrotation
                }
              }
            }
          }
          JOINT LeftShoulder
          {
            OFFSET 23.218927 5.195579 1.621656
            CHANNELS 3 Zrotation Yrotation Xrotation
            JOINT LeftArm
            {
              OFFSET 15.902118 2e-06 -2e-06
              CHANNELS 3 Zrotation Yrotation Xrotation
              JOINT LeftForeArm
              {
                OFFSET 28.739307 0.0 -1e-06
                CHANNELS 3 Zrotation Yrotation Xrotation
                JOINT LeftHand
                {
                  OFFSET 27.093981 -4e-06 0.0
                  CHANNELS 3 Zrotation Yrotation Xrotation
                  JOINT LeftHandThumb1
                  {
                    OFFSET 2.276781 3.380274 0.83384
                    CHANNELS 3 Zrotation Yrotation Xrotation
                    JOINT LeftHandThumb2
                    {
                      OFFSET 4.705309 -1e-06 -1e-06
                      CHANNELS 3 Zrotation Yrotation Xrotation
                      JOINT LeftHandThumb3
                      {
                        OFFSET 2.798515 0.0 3e-06
                        CHANNELS 3 Zrotation Yrotation Xrotation
                        JOINT LeftHandThumbEnd
                        {
                          OFFSET 3.180793 4e-06 -4e-06
                          CHANNELS 3 Zrotation Yrotation Xrotation
                        }
                      }
                    }
                  }
                  JOINT LeftHandIndex1
                  {
                    OFFSET 3.247786 2.352677 0.137192
                    CHANNELS 3 Zrotation Yrotation Xrotation
                    JOINT LeftHandIndex2
                    {
                      OFFSET 6.367095 1e-06 0.0
                      CHANNELS 3 Zrotation Yrotation Xrotation
                      JOINT LeftHandIndex3
                      {
                        OFFSET 3.662364 0.0 0.0
                        CHANNELS 3 Zrotation Yrotation Xrotation
                        JOINT LeftHandIndex4
                        {
                          OFFSET 2.329242 4e-06 -4e-06
                          CHANNELS 3 Zrotation Yrotation Xrotation
                          JOINT LeftHandIndexEnd
                          {
                            OFFSET 2.767823 1e-06 0.0
                            CHANNELS 3 Zrotation Yrotation Xrotation
                          }
                        }
                      }
                    }
                  }
                  JOINT LeftHandMiddle1
                  {
                    OFFSET 3.163612 0.945023 -0.406112
                    CHANNELS 3 Zrotation Yrotation Xrotation
                    JOINT LeftHandMiddle2
                    {
                      OFFSET 6.276789 3e-06 0.0
                      CHANNELS 3 Zrotation Yrotation Xrotation
                      JOINT LeftHandMiddle3
                      {
                        OFFSET 4.35652 -1e-06 4e-06
                        CHANNELS 3 Zrotation Yrotation Xrotation
                        JOINT LeftHandMiddle4
                        {
                          OFFSET 2.996877 0.0 8e-06
                          CHANNELS 3 Zrotation Yrotation Xrotation
                          JOINT LeftHandMiddleEnd
                          {
                            OFFSET 2.323256 3e-06 -4e-06
                            CHANNELS 3 Zrotation Yrotation Xrotation
                          }
                        }
                      }
                    }
                  }
                  JOINT LeftHandRing1
                  {
                    OFFSET 2.882606 -0.309162 0.107445
                    CHANNELS 3 Zrotation Yrotation Xrotation
                    JOINT LeftHandRing2
                    {
                      OFFSET 6.033198 0.0 4e-06
                      CHANNELS 3 Zrotation Yrotation Xrotation
                      JOINT LeftHandRing3
                      {
                        OFFSET 4.350578 3e-06 0.0
                        CHANNELS 3 Zrotation Yrotation Xrotation
                        JOINT LeftHandRing4
                        {
                          OFFSET 2.651321 2e-06 -7e-06
                          CHANNELS 3 Zrotation Yrotation Xrotation
                          JOINT LeftHandRingEnd
                          {
                            OFFSET 1.937663 1e-06 -4e-06
                            CHANNELS 3 Zrotation Yrotation Xrotation
                          }
                        }
                      }
                    }
                  }
                  JOINT LeftHandPinky1
                  {
                    OFFSET 2.865315 -1.525436 0.575687
                    CHANNELS 3 Zrotation Yrotation Xrotation
                    JOINT LeftHandPinky2
                    {
                      OFFSET 5.54936 1e-06 -8e-06
                      CHANNELS 3 Zrotation Yrotation Xrotation
                      JOINT LeftHandPinky3
                      {
                        OFFSET 3.070974 0.0 -4e-06
                        CHANNELS 3 Zrotation Yrotation Xrotation
                        JOINT LeftHandPinky4
                        {
                          OFFSET 1.549672 1e-06 0.0
                          CHANNELS 3 Zrotation Yrotation Xrotation
                          JOINT LeftHandPinkyEnd
                          {
                            OFFSET 1.952123 0.0 0.0
                            CHANNELS 3 Zrotation Yrotation Xrotation
                          }
                        }
                      }
                    }
                  }
                }
              }
            }
          }
          JOINT RightShoulder
          {
            OFFSET 23.161716 5.296122 -1.380114
            CHANNELS 3 Zrotation Yrotation Xrotation
            JOINT RightArm
            {
              OFFSET -16.027195 -2e-06 1.1e-05
              CHANNELS 3 Zrotation Yrotation Xrotation
              JOINT RightForeArm
              {
                OFFSET -28.736639 4e-06 2e-06
                CHANNELS 3 Zrotation Yrotation Xrotation
                JOINT RightHand
                {
                  OFFSET -27.133619 6e-06 0.0
                  CHANNELS 3 Zrotation Yrotation Xrotation
                  JOINT RightHandThumb1
                  {
                    OFFSET -2.274328 -3.351035 -0.83067
                    CHANNELS 3 Zrotation Yrotation Xrotation
                    JOINT RightHandThumb2
                    {
                      OFFSET -4.703594 -3e-06 2e-06
                      CHANNELS 3 Zrotation Yrotation Xrotation
                      JOINT RightHandThumb3
                      {
                        OFFSET -2.794935 -4e-06 -3e-06
                        CHANNELS 3 Zrotation Yrotation Xrotation
                        JOINT RightHandThumbEnd
                        {
                          OFFSET -3.183852 4e-06 1e-06
                          CHANNELS 3 Zrotation Yrotation Xrotation
                        }
                      }
                    }
                  }
                  JOINT RightHandIndex1
                  {
                    OFFSET -3.253496 -2.33755 -0.127667
                    CHANNELS 3 Zrotation Yrotation Xrotation
                    JOINT RightHandIndex2
                    {
                      OFFSET -6.344434 0.0 0.0
                      CHANNELS 3 Zrotation Yrotation Xrotation
                      JOINT RightHandIndex3
                      {
                        OFFSET -3.654871 0.0 -8e-06
                        CHANNELS 3 Zrotation Yrotation Xrotation
                        JOINT RightHandIndex4
                        {
                          OFFSET -2.327586 -1e-06 0.0
                          CHANNELS 3 Zrotation Yrotation Xrotation
                          JOINT RightHandIndexEnd
                          {
                            OFFSET -2.770001 3e-06 8e-06
                            CHANNELS 3 Zrotation Yrotation Xrotation
                          }
                        }
                      }
                    }
                  }
                  JOINT RightHandMiddle1
                  {
                    OFFSET -3.168223 -0.944764 0.411762
                    CHANNELS 3 Zrotation Yrotation Xrotation
                    JOINT RightHandMiddle2
                    {
                      OFFSET -6.266691 -1e-06 -4e-06
                      CHANNELS 3 Zrotation Yrotation Xrotation
                      JOINT RightHandMiddle3
                      {
                        OFFSET -4.348901 0.0 0.0
                        CHANNELS 3 Zrotation Yrotation Xrotation
                        JOINT RightHandMiddle4
                        {
                          OFFSET -3.00024 2e-06 -4e-06
                          CHANNELS 3 Zrotation Yrotation Xrotation
                          JOINT RightHandMiddleEnd
                          {
                            OFFSET -2.321477 -4e-06 -4e-06
                            CHANNELS 3 Zrotation Yrotation Xrotation
                          }
                        }
                      }
                    }
                  }
                  JOINT RightHandRing1
                  {
                    OFFSET -2.885654 0.293261 -0.119232
                    CHANNELS 3 Zrotation Yrotation Xrotation
                    JOINT RightHandRing2
                    {
                      OFFSET -6.032835 -1e-06 -4e-06
                      CHANNELS 3 Zrotation Yrotation Xrotation
                      JOINT RightHandRing3
                      {
                        OFFSET -4.33881 0.0 -4e-06
                        CHANNELS 3 Zrotation Yrotation Xrotation
                        JOINT RightHandRing4
                        {
                          OFFSET -2.654903 -4e-06 -4e-06
                          CHANNELS 3 Zrotation Yrotation Xrotation
                          JOINT RightHandRingEnd
                          {
                            OFFSET -1.935122 0.0 4e-06
                            CHANNELS 3 Zrotation Yrotation Xrotation
                          }
                        }
                      }
                    }
                  }
                  JOINT RightHandPinky1
                  {
                    OFFSET -2.866241 1.503904 -0.60527
                    CHANNELS 3 Zrotation Yrotation Xrotation
                    JOINT RightHandPinky2
                    {
                      OFFSET -5.553177 -2e-06 0.0
                      CHANNELS 3 Zrotation Yrotation Xrotation
                      JOINT RightHandPinky3
                      {
                        OFFSET -3.062664 -1e-06 -4e-06
                        CHANNELS 3 Zrotation Yrotation Xrotation
                        JOINT RightHandPinky4
                        {
                          OFFSET -1.546529 2e-06 4e-06
                          CHANNELS 3 Zrotation Yrotation Xrotation
                          JOINT RightHandPinkyEnd
                          {
                            OFFSET -1.952341 0.0 -4e-06
                            CHANNELS 3 Zrotation Yrotation Xrotation
                          }
                        }
                      }
                    }
                  }
                }
              }
            }
          }
        }
      }
    }
    JOINT LeftLeg
    {
      OFFSET -8.443107 2.567604 10.043214
      CHANNELS 3 Zrotation Yrotation Xrotation
      JOINT LeftShin
      {
        OFFSET 43.229198 1e-06 -1e-06
        CHANNELS 3 Zrotation Yrotation Xrotation
        JOINT LeftFoot
        {
          OFFSET 42.298611 1e-06 1e-06
          CHANNELS 3 Zrotation Yrotation Xrotation
          JOINT LeftToeBase
          {
            OFFSET 14.165858 1e-06 0.0
            CHANNELS 3 Zrotation Yrotation Xrotation
            JOINT LeftToeEnd
            {
              OFFSET 6.7141 -0.234461 0.0
              CHANNELS 3 Zrotation Yrotation Xrotation
            }
          }
        }
      }
    }
    JOINT RightLeg
    {
      OFFSET -8.303923 2.592729 -10.047278
      CHANNELS 3 Zrotation Yrotation Xrotation
      JOINT RightShin
      {
        OFFSET -43.369682 0.0 1e-06
        CHANNELS 3 Zrotation Yrotation Xrotation
        JOINT RightFoot
        {
          OFFSET -42.260784 4e-06 2e-06
          CHANNELS 3 Zrotation Yrotation Xrotation
          JOINT RightToeBase
          {
            OFFSET -14.222245 -2e-06 -1e-06
            CHANNELS 3 Zrotation Yrotation Xrotation
            JOINT RightToeEnd
            {
              OFFSET -6.660062 0.232574 -2e-06
              CHANNELS 3 Zrotation Yrotation Xrotation
            }
          }
        }
      }
    }
  }
}
MOTION
Frames: 5
Frame Time: 0.03333333333333333
0.0 0.0 0.0 0.0 -0.0 0.0 0.298234 100.359795 5.835978 89.481293 3.033759 89.860512 -3.511604 0.106345 -0.149815 -12.264456 -0.754634 -0.525684 21.662292 -0.343238 -2.574896 26.57045 1.553773 2.618231 -2.589447 -0.683584 -0.087039 -31.580643 0.086762 -0.754626 6e-06 -0.0 -0.0 0.017259 0.007673 -0.038649 0.027329 0.059686 -0.021932 0.023411 -0.044101 -0.049814 -121.0737 -75.744118 136.976761 41.537876 -54.359303 2.841044 30.857399 -0.401061 -0.04093 -1.436754 -0.214894 -6.113031 17.636631 -26.322741 52.411201 -19.466661 -14.395598 29.410395 -0.0 -8.774821 0.0 15.930426 -18.085974 6.105236 -0.609776 -1.795654 -3.889327 -4.80709 -11.046811 -2.93785 3e-06 -20.976019 2e-06 -5.019971 -25.033558 -4.031878 8e-06 -1e-06 -0.0 -10.634536 -5.686972 -3.565587 10.573277 -17.922953 -3.113902 2e-06 -13.82121 2e-06 -0.501777 -31.181507 -4.027014 -11.66868 -59.629547 7.549992 -13.982713 -7.150198 -2.875042 13.772729 -8.401492 -3.218244 0.347732 -34.211555 0.771656 -0.963029 -17.73337 2.62102 1e-06 -1e-06 -1e-06 -17.34642 -20.095217 -4.201778 21.757557 -1.638374 3.866428 2e-06 -6.338824 -2e-06 -1.697592 -22.591747 -6.194005 0.0 -2e-06 -2e-06 39.892262 -72.015099 156.082214 34.640446 -49.576347 6.743794 33.274094 -0.456391 0.063799 -5.32726 -0.999259 -8.764508 22.182114 -20.375904 49.933327 -16.701817 -16.74353 28.476538 -4e-06 -12.690601 -1e-06 16.10647 -17.712854 2.724858 -0.10592 -1.513856 -4.275882 -5.039041 -5.612872 -2.953557 4e-06 -11.020525 -1e-06 -6.111296 -15.895334 -3.84047 -0.0 1e-06 0.0 -10.283373 -5.680289 -4.341838 11.028297 -11.302405 -2.372634 -1.38427 -14.238581 -6.320121 -0.625439 -26.924191 -3.827599 -4.100765 -49.72179 -3.798198 -13.708527 -7.363477 -3.72094 18.141151 -14.052739 -3.242675 7e-06 -18.78727 -1e-06 -0.429713 -8.456041 2.555506 -0.0 -1e-06 0.0 -15.923536 -20.094484 -5.473584 30.419218 -7.190827 1.735927 2e-06 -8.162929 -1e-06 -1.861902 -22.861467 -6.16794 1e-06 -5e-06 -2e-06 -173.906006 -3.852631 -11.255926 5.597671 -0.052723 0.004048 -77.193413 4.606234 -5.963289 -7.261327 1.509121 2.062243 -0.999998 -0.0 -0.0 4.771275 -1.978328 -11.357034 5.433879 0.082756 -0.123816 -75.861351 -0.053066 -2.928349 -6.811563 0.701749 1.637413 -1.000002 0.0 -0.0 
0.0 0.0 0.0 0.0 -0.0 0.0 0.303802 100.370071 5.913651 89.450592 3.006848 89.827995 -3.514069 0.103326 -0.165394 -12.264831 -0.734407 -0.485321 21.658022 -0.316764 -2.638605 26.749062 1.546194 2.619885 -2.578984 -0.678132 -0.061235 -31.46508 0.066612 -0.724775 6e-06 0.0 -0.0 0.018222 0.006266 -0.016178 0.025727 0.052379 8.4e-05 0.021217 -0.039508 -0.027282 -120.991028 -75.817604 136.905594 41.583576 -54.418201 2.73042 30.848536 -0.417067 -0.090613 -1.476445 -0.338574 -5.948101 17.636625 -26.322727 52.411186 -19.46666 -14.395594 29.410389 -1e-06 -8.774817 1e-06 15.943933 -18.056299 6.087826 -0.609774 -1.795652 -3.889328 -4.807087 -11.046811 -2.937851 5e-06 -20.976017 -0.0 -5.019969 -25.03356 -4.031881 7e-06 1e-06 1e-06 -10.634531 -5.68697 -3.565586 10.573271 -17.922951 -3.113901 4e-06 -13.821209 0.0 -0.501775 -31.181501 -4.027015 -11.6782 -59.641403 7.626041 -13.982709 -7.150197 -2.875042 13.772726 -8.401491 -3.218243 0.347734 -34.211544 0.771655 -0.963029 -17.733366 2.621021 1e-06 -1e-06 -1e-06 -17.346413 -20.095217 -4.201784 21.757551 -1.638377 3.866426 3e-06 -6.338823 -3e-06 -1.697588 -22.591742 -6.194006 -2e-06 -2e-06 -2e-06 39.988483 -72.026077 156.003586 34.607231 -49.626198 6.492249 33.248489 -0.426197 0.04418 -5.205346 -1.048981 -8.836295 22.182117 -20.375898 49.933327 -16.701813 -16.743528 28.47653 -3e-06 -12.6906 -2e-06 16.119123 -17.695602 2.720046 -0.10592 -1.513857 -4.27588 -5.039041 -5.612873 -2.953556 3e-06 -11.020527 -2e-06 -6.1113 -15.895336 -3.840472 0.0 -0.0 0.0 -10.28337 -5.680288 -4.341838 11.028296 -11.302406 -2.372633 -1.384269 -14.238582 -6.320121 -0.625438 -26.924191 -3.827601 -4.091438 -49.867249 -3.75801 -13.708526 -7.363478 -3.720939 18.14115 -14.052741 -3.242676 6e-06 -18.78727 -3e-06 -0.429711 -8.456045 2.555504 -1e-06 -1e-06 0.0 -15.923536 -20.094484 -5.473584 30.419214 -7.190825 1.735927 2e-06 -8.162929 -1e-06 -1.861901 -22.861469 -6.167943 0.0 -5e-06 -2e-06 -173.846222 -3.879799 -11.236597 5.556117 -0.042607 0.054064 -77.187851 4.574066 -6.101345 -7.250462 1.524202 2.069614 -0.999999 -0.0 0.0 4.676278 -2.007745 -11.270183 5.38459 0.079839 -0.118918 -75.709976 -0.114032 -2.94186 -6.817216 0.696185 1.639666 -1.000003 -0.0 -0.0 
0.0 0.0 0.0 0.0 -0.0 0.0 0.304491 100.364372 6.049699 89.435715 3.011981 89.782364 -3.507965 0.090109 -0.171172 -12.281773 -0.731608 -0.479729 21.727055 -0.283142 -2.660696 26.953285 1.53266 2.625153 -2.600466 -0.667584 -0.070848 -31.340044 0.059514 -0.701414 6e-06 -0.0 -0.0 0.018273 0.006193 -0.012172 0.011752 0.043425 0.00538 0.010596 -0.030867 -0.025091 -120.789299 -75.896019 136.725327 41.636261 -54.492706 2.667038 30.876223 -0.39268 -0.121413 -1.604458 -0.493629 -5.922285 17.636623 -26.322718 52.411179 -19.466654 -14.395596 29.410378 1e-06 -8.77482 -1e-06 15.979544 -18.071678 6.077254 -0.609775 -1.795653 -3.889325 -4.80709 -11.046809 -2.93785 1e-06 -20.976013 -0.0 -5.019973 -25.033556 -4.031881 7e-06 1e-06 -0.0 -10.634533 -5.686972 -3.565585 10.573266 -17.922945 -3.113899 0.0 -13.821205 0.0 -0.501782 -31.181498 -4.02702 -11.719377 -59.672031 7.631231 -13.982714 -7.1502 -2.87504 13.772727 -8.401488 -3.218245 0.347728 -34.211544 0.771652 -0.963028 -17.73337 2.621018 1e-06 0.0 -1e-06 -17.346422 -20.095217 -4.201778 21.757555 -1.63837 3.866428 1e-06 -6.338821 -1e-06 -1.697596 -22.59174 -6.194005 2e-06 -5e-06 -2e-06 40.004776 -72.040939 155.981186 34.570118 -49.661072 6.243645 33.214104 -0.412488 0.018553 -5.152917 -1.01301 -9.02762 22.182116 -20.375893 49.933319 -16.701805 -16.743528 28.476526 -3e-06 -12.6906 -1e-06 16.129023 -17.684227 2.732852 -0.10592 -1.513856 -4.275883 -5.039041 -5.61287 -2.953555 3e-06 -11.02052 -2e-06 -6.111298 -15.89533 -3.84047 -0.0 0.0 1e-06 -10.283369 -5.680287 -4.341839 11.028292 -11.302403 -2.372632 -1.384268 -14.238577 -6.320122 -0.625436 -26.924187 -3.8276 -4.094985 -49.933964 -3.741498 -13.708523 -7.363475 -3.720939 18.141148 -14.052738 -3.242674 6e-06 -18.787266 -3e-06 -0.429712 -8.456041 2.555505 0.0 -4e-06 3e-06 -15.923534 -20.094479 -5.473585 30.41921 -7.190826 1.735926 3e-06 -8.162929 -1e-06 -1.861903 -22.861464 -6.167941 1e-06 -4e-06 -1e-06 -173.74971 -3.889855 -11.193581 5.540928 -0.042106 0.078265 -77.243752 4.502478 -6.202572 -7.205894 1.527264 2.076712 -0.999999 -0.0 -0.0 4.493362 -2.106886 -11.169719 5.376155 0.079203 -0.114345 -75.572647 -0.1802 -3.028443 -6.770262 0.699219 1.642264 -1.000002 0.0 -0.0 
0.0 0.0 0.0 0.0 -0.0 0.0 0.285665 100.35714 6.168426 89.425751 3.016463 89.727814 -3.500246 0.070471 -0.172239 -12.301708 -0.732107 -0.482879 21.805639 -0.25071 -2.660443 27.154337 1.503884 2.629501 -2.622685 -0.656341 -0.063722 -31.273169 0.068594 -0.67258 6e-06 -0.0 0.0 0.016682 0.006132 -0.019477 -0.001456 0.035989 -0.000236 -0.001599 -0.023574 -0.034242 -120.502449 -75.945335 136.451462 41.692459 -54.577911 2.623203 30.882233 -0.363804 -0.136261 -1.730324 -0.572839 -5.871543 17.636625 -26.322723 52.411175 -19.466656 -14.395596 29.410378 -0.0 -8.77482 -0.0 15.999228 -18.065983 6.086031 -0.609775 -1.795653 -3.889328 -4.807088 -11.046811 -2.937848 5e-06 -20.976015 0.0 -5.019969 -25.033556 -4.031879 6e-06 0.0 -0.0 -10.634532 -5.68697 -3.565586 10.573271 -17.922947 -3.113901 2e-06 -13.821209 1e-06 -0.501779 -31.181501 -4.027014 -11.757646 -59.698463 7.649575 -13.982711 -7.150198 -2.875039 13.772726 -8.401489 -3.218243 0.347734 -34.211544 0.771654 -0.963026 -17.73337 2.621018 1e-06 -0.0 -1e-06 -17.346416 -20.095217 -4.201779 21.757555 -1.638374 3.866425 3e-06 -6.338823 -1e-06 -1.697592 -22.591743 -6.194005 1e-06 -4e-06 -2e-06 39.961578 -72.065033 156.019119 34.547577 -49.697636 6.096061 33.163403 -0.370395 0.013035 -5.142362 -0.975287 -9.224982 22.182114 -20.375887 49.9333 -16.701815 -16.743528 28.47653 -3e-06 -12.6906 -1e-06 16.13413 -17.670385 2.748276 -0.105919 -1.513856 -4.275881 -5.039039 -5.612871 -2.953555 4e-06 -11.020524 -1e-06 -6.111297 -15.895334 -3.840471 -0.0 -0.0 1e-06 -10.283369 -5.680288 -4.341836 11.028296 -11.302406 -2.372633 -1.384269 -14.238582 -6.320121 -0.625437 -26.924196 -3.827601 -4.110802 -49.925201 -3.712178 -13.708526 -7.363477 -3.720936 18.141151 -14.052739 -3.242676 7e-06 -18.78727 -4e-06 -0.429709 -8.456044 2.555503 -1e-06 -1e-06 2e-06 -15.923534 -20.094482 -5.473581 30.41921 -7.190826 1.735924 1e-06 -8.162928 -2e-06 -1.861902 -22.861467 -6.167943 1e-06 -5e-06 -1e-06 -173.691849 -3.898969 -11.206656 5.586028 -0.046488 0.089405 -77.315727 4.419266 -6.271726 -7.179547 1.521144 2.077103 -0.999999 -0.0 0.0 4.247734 -2.237312 -11.122579 5.396171 0.081615 -0.118519 -75.39209 -0.140281 -3.136438 -6.737306 0.698061 1.642698 -1.000001 -0.0 -0.0 
0.0 0.0 0.0 0.0 -0.0 0.0 0.258744 100.349869 6.23956 89.412315 3.003895 89.676582 -3.495905 0.057187 -0.159649 -12.314241 -0.729957 -0.49107 21.865307 -0.231411 -2.655914 27.320065 1.487395 2.618868 -2.637641 -0.641295 -0.039466 -31.240923 0.098554 -0.6463 6e-06 -0.0 0.0 0.017557 0.006243 -0.024133 -0.006295 0.031083 -0.004247 -0.006556 -0.018332 -0.03966 -120.145203 -75.99968 136.095367 41.78154 -54.688129 2.517417 30.861538 -0.341312 -0.13231 -1.826361 -0.584463 -5.772676 17.636627 -26.322735 52.411198 -19.466661 -14.395596 29.410389 -1e-06 -8.774821 -2e-06 15.982347 -18.035278 6.111609 -0.609779 -1.795655 -3.889328 -4.807086 -11.046811 -2.937852 7e-06 -20.976021 -0.0 -5.019969 -25.033562 -4.031879 6e-06 1e-06 -1e-06 -10.634533 -5.68697 -3.565586 10.573275 -17.922949 -3.113903 3e-06 -13.821211 0.0 -0.501779 -31.181501 -4.027015 -11.765485 -59.701756 7.668169 -13.982713 -7.150198 -2.875042 13.77273 -8.401492 -3.218245 0.347735 -34.211555 0.771656 -0.963028 -17.733372 2.621022 1e-06 -1e-06 -0.0 -17.346418 -20.095221 -4.201782 21.757557 -1.638376 3.866428 3e-06 -6.338823 0.0 -1.697591 -22.591743 -6.194005 2e-06 -5e-06 -2e-06 39.949364 -72.104187 156.037323 34.576267 -49.730141 6.072041 33.093433 -0.297697 0.024318 -5.12109 -0.954342 -9.376554 22.182116 -20.375898 49.933331 -16.701815 -16.743528 28.476538 -3e-06 -12.690602 -0.0 16.128319 -17.668224 2.771266 -0.105921 -1.513857 -4.275883 -5.039041 -5.612872 -2.953559 3e-06 -11.020527 -1e-06 -6.1113 -15.895336 -3.840472 -0.0 1e-06 1e-06 -10.283373 -5.680291 -4.341839 11.028295 -11.302406 -2.372633 -1.38427 -14.238584 -6.320122 -0.625438 -26.924189 -3.827603 -4.138113 -49.912086 -3.676526 -13.708526 -7.363477 -3.720941 18.14115 -14.05274 -3.242678 6e-06 -18.78727 -2e-06 -0.429711 -8.456042 2.555504 -1e-06 -1e-06 0.0 -15.923539 -20.09449 -5.473587 30.419222 -7.190827 1.735925 3e-06 -8.162929 -1e-06 -1.861902 -22.861473 -6.167942 0.0 -5e-06 -2e-06 -173.701859 -3.917711 -11.225069 5.709024 -0.052955 0.092493 -77.41584 4.319914 -6.31107 -7.144505 1.514549 2.074625 -0.999999 -0.0 -0.0 3.984626 -2.357575 -11.136063 5.425008 0.083057 -0.116752 -75.265266 -0.033049 -3.25441 -6.715125 0.696624 1.642386 -1.000002 0.0 -0.0 
